@startuml design-pattern

title Bridge

hide empty members
skinparam shadowing false


abstract class Abstraction {
    + operation()
}

class Implementor {
    + operationImpl()
}


Abstraction *-- Implementor
RefinedAbastraction --|> Abstraction

ConcrectImplementorA --|> Implementor
ConcrectImplementorB --|> Implementor

Client -> Abstraction


right footer generated by DAO
@enduml