@startuml
title Decorator

hide empty members
skinparam shadowing false

class Component {
    + operation()
}

class ConcrectComponent {
    + operation()
}

class Decorator {
    - component
    + operation()
}

ConcrectComponent --|> Component
Decorator --|> Component
Decorator o-- Component

ConcrectDecoratorA --|> Decorator
ConcrectDecoratorB --|> Decorator

right footer generated by DAO
@enduml