@startuml design-pattern

title Strategy

hide empty members
skinparam shadowing false


class Context {
    + contextInterface()
}

class Strategy {
    + algorithmInterface()
}

Context o- Strategy

ConcrectStrategyA --|> Strategy
ConcrectStrategyB --|> Strategy
ConcrectStrategyC --|> Strategy

Client -> Context


right footer generated by DAO
@enduml