@startuml design-pattern

title Template Method

hide empty members
skinparam shadowing false


class AbstractClass {
    + {abstract} operation1()
    + {abstract} operation2()
    + {abstract} templateMethod()
}

class ConcrectClassA {
    + operation1()
    + operation2()
}

class ConcrectClassB {
    + operation1()
    + operation2()
}

ConcrectClassA --|> AbstractClass
ConcrectClassB --|> AbstractClass

Client -> AbstractClass


right footer generated by DAO
@enduml